<svg xmlns="http://www.w3.org/2000/svg" viewBox="0 0 400 400"><g fill-rule="evenodd"><path fill="#57a7da" d="M195.067 2.209c-2.347 1.205-4.307 2.282-4.356 2.393-.05.111-.2.133-.334.051-.134-.083-.244-.017-.244.147 0 .164-.12.224-.266.133-.147-.09-.267-.03-.267.134s-.12.224-.267.133c-.146-.091-.266-.031-.266.133s-.12.224-.267.134c-.147-.091-.267-.031-.267.133s-.12.224-.266.133c-1.149-.71 1.713 2.246 15.666 16.177l15.934 15.908 3.266 1.531c1.797.842 3.267 1.64 3.267 1.773 0 .134.12.169.267.078.146-.091.266-.031.266.133s.12.224.267.134c.147-.091.267-.031.267.133s.12.224.266.133c.147-.09.267-.03.267.134s.12.224.267.133c.146-.091.266-.031.266.133s.12.224.267.134c.147-.091.267-.031.267.133s.12.224.266.133c.147-.09.267-.03.267.134s.12.224.267.133c.146-.091.266-.031.266.133s.12.224.267.134c.147-.091.267-.051.267.089 0 .139.186.325.414.412.252.097.345.049.238-.124-.096-.156.307-.038.895.263.589.3 1.111.656 1.161.792.051.136 14.612 7.474 32.358 16.307 64.875 32.29 84.142 41.861 84.27 41.861.072 0 .13-6.342.13-14.092V74.483l-2.866-1.361c-1.577-.749-29.627-14.7-62.334-31.004a824864.048 824864.048 0 0 0-71.987-35.88C206.059 2.807 200.179.004 199.879.009c-.3.004-2.466.994-4.812 2.2m118.731 129.154c-.092.148 7.967 8.402 17.908 18.343l18.075 18.073.175-5.023c.097-2.762.176-6.901.177-9.196v-4.173l-11.702-5.88c-6.436-3.235-11.776-5.807-11.866-5.716-.091.09-.165.017-.165-.162 0-.18-.12-.253-.267-.162-.146.09-.266.03-.266-.134s-.12-.224-.267-.133c-.147.091-.267.031-.267-.133s-.12-.224-.266-.134c-.147.091-.267.031-.267-.133s-.12-.224-.267-.133c-.146.09-.266.03-.266-.134s-.12-.224-.267-.133c-.147.091-.267.031-.267-.133s-.12-.224-.266-.134c-.147.091-.267.042-.267-.109s-.2-.197-.444-.104c-.261.101-.376.062-.28-.093.163-.265-4.485-2.686-4.915-2.56-.125.036-.228-.061-.228-.216s-.12-.208-.266-.118c-.147.091-.267.031-.267-.133s-.12-.224-.267-.133c-.146.09-.266.03-.266-.134s-.12-.224-.267-.133c-.147.091-.267.031-.267-.133s-.12-.224-.266-.134c-.147.091-.267.031-.267-.133s-.12-.224-.267-.133c-.146.09-.266.03-.266-.134s-.11-.23-.244-.147c-.134.083-.292.006-.351-.171-.068-.203-.169-.223-.274-.052"/><path fill="#7b65ad" d="M49.963 198.4c0 1.393.045 1.963.1 1.267.055-.697.055-1.837 0-2.534-.055-.696-.1-.126-.1 1.267m-.096 5.067c0 .721.083.8.85.8h.849l-.766-.8c-.422-.44-.804-.8-.85-.8-.046 0-.083.36-.083.8M51 206.326c-.723.09-.867.22-.867.789 0 .576.093.656.6.52.33-.089 1.371-.163 2.313-.165l1.714-.003-.627-.667c-.629-.67-1.045-.733-3.133-.474m-.662 2.374c-.551.164-.716 42.354-.197 50.692 4.675 75.212 64.407 135.326 139.459 140.354 3.746.251 19.796.227 22.133-.033.783-.087 7.349-.83 8.267-.936a32.623 32.623 0 0 0 1.867-.282 69.512 69.512 0 0 1 1.333-.238c.22-.035.88-.149 1.467-.254.586-.105 1.336-.191 1.666-.192.33 0 .6-.115.6-.255s.119-.181.265-.091c.145.09 1.615-.107 3.266-.437 2.117-.423 2.806-.647 2.336-.758-.451-.107-.694-.371-.752-.814-.342-2.628-1.162-4.915-2.144-5.98-.766-.831-1.085-1.453-1.247-2.43-.119-.722-.228-1.373-.241-1.446-.013-.073-.108-.265-.211-.427-.103-.161-.486-1.901-.851-3.867-.366-1.965-.9-4.712-1.188-6.103-.392-1.894-.445-2.581-.211-2.73.205-.13.152-.2-.155-.202-.257-.002-.467.129-.467.291 0 .188-.261.23-.713.117-.565-.142-.656-.107-.438.171.151.192.421 1.13.599 2.083.178.954.392 2.034.474 2.4l.151.667-.821-.768c-.653-.612-.796-.666-.703-.267 1.355 5.795 3.97 20.368 3.655 20.368-.259 0-1.384-1.108-1.353-1.333.019-.144-.328-2.79-.46-3.5-.044-.238-.148-.838-.231-1.333-.082-.495-.214-1.2-.293-1.567a39.265 39.265 0 0 1-.293-1.6c-.082-.513-.692-3.753-1.354-7.2-.663-3.447-1.208-6.537-1.212-6.867-.004-.33-.103-.6-.219-.6-.117 0-.403-.073-.637-.163-.306-.117-.38-.047-.265.252.136.355.023.377-.801.149-1.197-.33-1.56-.12-1.363.788.084.389.216 1.008.293 1.374.162.77.647 3.545.649 3.713.001.063-.291-.162-.649-.498l-.652-.612.132.899c.142.976.255 1.602.474 2.632.077.366.202 1.516.277 2.556.075 1.039.194 2.059.265 2.266.071.208.197.845.28 1.417.083.572.218 1.352.3 1.733l.149.694-.776-.821c-.8-.847-1.143-2.273-1.531-6.379-.084-.88-.405-3.04-.714-4.8-.309-1.76-.566-3.521-.572-3.913-.01-.608-.113-.702-.696-.631-.377.046-.685.103-.685.128 0 .024-.72.093-1.6.153-.88.061-2.08.159-2.667.218-65.711 6.633-127.369-42.787-135.187-108.355-.236-1.98-.497-4.02-.579-4.533-.082-.513-.211-6.771-.287-13.907l-.137-12.974-1.038-1.013c-1.27-1.24-1.289-1.439-.138-1.439 1.091 0 1.252-.518 1.197-3.834-.02-1.191-.087-1.912-.148-1.601-.13.662-1.621.969-3.483.718-1.015-.138-1.133-.096-1.133.394 0 .654 1.002.94 3.124.891 1.963-.045 2.114.883.179 1.101-2.126.24-3.303-.035-3.303-.771 0-.516-.138-.632-.759-.632-.417 0-.962-.224-1.21-.499-.496-.547-.043-.822 1.369-.83.424-.003.6-.163.6-.545 0-.506-.111-.529-1.752-.361l-1.753.18-1.414-1.397-1.414-1.397-1.865.018c-1.532.014-1.95-.077-2.342-.509-.472-.522-.435-.526 4.822-.526h5.298l-1.313-1.333-1.312-1.333-3.454.017-3.453.018-2.087-2.075c-2.505-2.49-2.468-2.55 1.456-2.444l3.09.083-.72-.764-.72-.765-3.271.149c-3.196.144-3.287.133-4-.507l-.729-.656 1.6.144c.88.079 2.413.051 3.408-.062l1.808-.206-2.121-2.106-2.12-2.106-2.621-.079c-1.442-.044-2.829-.018-3.083.058m254.849 148.433-1.054 1.134 1.134-1.054c1.054-.981 1.256-1.213 1.054-1.213-.044 0-.554.51-1.134 1.133M244.4 369.6c1.166 1.173 2.181 2.133 2.254 2.133.073 0-.821-.96-1.987-2.133-1.167-1.173-2.181-2.133-2.254-2.133-.074 0 .821.96 1.987 2.133m-6.679-.247c-.096.156-.343.219-.548.14-.205-.079-.373-.019-.373.133 0 .159-.255.205-.6.108-.335-.094-.466-.073-.298.049.167.119 1.929 5.617 3.917 12.217 1.989 6.6 3.622 11.854 3.631 11.675.009-.179.185-.261.39-.182.205.079.449.02.542-.13.092-.15.332-.21.533-.133.2.077.445.01.543-.15.098-.159.291-.22.427-.135.137.084.248.013.248-.158s.18-.242.4-.157c.22.084.4.024.4-.134 0-.157.18-.217.4-.133.22.085.4.025.4-.133s.176-.219.392-.137c.215.083.463.034.552-.109a.299.299 0 0 1 .408-.106c.943.583-.129-.897-2.124-2.931-2.338-2.384-2.646-2.907-3.066-5.214-.067-.366-.14-.666-.162-.666-.022 0-.081-.18-.13-.4-.195-.87-1.081-3.072-1.27-3.156-.11-.049-.201-.349-.202-.667-.003-.844-1.542-5.544-1.948-5.95-.101-.101-.183-.456-.183-.789 0-.724-2.023-3.167-2.279-2.752m-6.924 1.851c-.092.149-.279.202-.415.118-.782-.483-.724.246.43 5.425.075.338.303 1.058.507 1.6.204.543.446 1.646.539 2.453.093.807.516 2.607.94 4 .423 1.393.842 3.073.931 3.733.089.66.322 1.74.518 2.4 1.388 4.68 1.391 4.7.504 4.922-.374.094-.63.222-.567.284.062.062.586-.025 1.164-.195.579-.169 1.145-.285 1.259-.257.537.132.441-.949-.296-3.342-.442-1.437-.876-3.082-.963-3.656-.088-.575-.504-2.255-.926-3.734-.978-3.431-2.127-8.082-2.822-11.427-.207-.993-.442-1.913-.523-2.044-.081-.131.004-.299.188-.374.24-.096.245-.141.017-.156a.586.586 0 0 0-.485.25m7.081 21.054c.427 1.363.723 2.565.658 2.672-.066.106.177.136.539.067.362-.069.658-.225.658-.346 0-.121.24-.174.534-.118.293.057.533-.006.533-.14s.168-.179.373-.1a.489.489 0 0 0 .576-.208c.112-.193.1-.258-.026-.143-.126.114-1.217-.776-2.425-1.978l-2.197-2.185.777 2.479"/><path fill="#698cc8" d="M97.067 51.138 66.8 66.267l9.533 9.462c5.244 5.205 9.534 9.307 9.534 9.118 0-.19.12-.271.266-.18.147.09.267.03.267-.134s.12-.224.267-.133c.146.091.266.038.266-.118 0-.155.09-.258.2-.228.314.084 54.363-26.871 54.578-27.219.106-.171.304-.241.441-.157.136.084.248.019.248-.145 0-.164.12-.224.267-.133.146.091.266.031.266-.133s.12-.224.267-.134c.147.091.267.031.267-.133s.15-.216.333-.115c.183.101-3.861-4.027-8.988-9.174-5.127-5.146-9.267-9.406-9.2-9.467.067-.06.511-.308.988-.55.708-.36 1.118-.713.8-.689-.037.003-13.687 6.813-30.333 15.133m102.955 51.63c.272.249 3.445 1.759 3.445 1.64 0-.15-3.081-1.741-3.371-1.741-.101 0-.135.045-.074.101M200 163.42v14.051l22.2 11.048c12.21 6.077 40.454 20.146 62.765 31.265 22.31 11.119 40.76 20.216 41 20.216.239 0 .435.127.435.282 0 .156.12.209.267.118.146-.091.266-.031.266.133s.12.224.267.134c.147-.091.267-.031.267.133s.12.224.266.133c.147-.09.267-.03.267.134s.12.224.267.133c.146-.091.266-.031.266.133s.12.224.267.134c.147-.091.267-.031.267.133s.12.224.266.133c.147-.09.267-.017.267.162 0 .18.085.242.189.139.103-.104-12.081-12.459-27.078-27.456-14.996-14.997-27.171-27.372-27.055-27.499.116-.127.071-.151-.1-.053-.171.097-.351.072-.4-.058-.133-.35-3.332-1.903-3.524-1.711-.091.091-.165.018-.165-.162 0-.179-.12-.252-.267-.162-.147.091-.267.031-.267-.133s-.12-.224-.266-.133c-.147.09-.267.03-.267-.134s-.12-.224-.267-.133c-.146.091-.266.031-.266-.133s-.12-.224-.267-.134c-.147.091-.267.031-.267-.133s-.12-.224-.266-.133c-.147.09-.267.03-.267-.134s-.12-.224-.267-.133c-.146.091-.266.031-.266-.133s-.11-.231-.244-.148c-.134.083-.284.045-.334-.085-.132-.351-5.466-2.968-5.658-2.776-.09.09-.164.017-.164-.163 0-.179-.11-.259-.244-.176-.134.083-.284.052-.334-.07-.088-.219-53.327-26.949-58.556-29.4L200 149.368v14.052m80.533 26.046c0 .177 4.299 2.324 4.418 2.205.053-.052-.92-.599-2.161-1.215-1.241-.615-2.257-1.061-2.257-.99m50.156 53.036c.271.25 4.511 2.29 4.511 2.171 0-.149-4.149-2.273-4.439-2.273-.101 0-.133.046-.072.102M244 246.117c0 .19 4.553 2.485 4.679 2.359.047-.046-.987-.633-2.297-1.303-1.31-.671-2.382-1.146-2.382-1.056m96 .944c0 .073.96.616 2.133 1.206 1.174.59 2.134 1.012 2.134.939 0-.073-.96-.616-2.134-1.206-1.173-.59-2.133-1.013-2.133-.939m-89.846 2.139c-.011.147 12.152 12.44 27.03 27.318 14.879 14.877 26.98 27.166 26.893 27.307-.088.142-.031.178.126.081.156-.097.325-.071.374.058.108.282 2.938 1.765 3.223 1.689.11-.029.2.074.2.229 0 .156.12.209.267.118.146-.091.266-.031.266.133s.12.224.267.134c.147-.091.267-.031.267.133s.12.224.266.133c.147-.09.267-.03.267.134s.12.224.267.133c.146-.091.266-.031.266.133s.12.224.267.134c.147-.091.267-.031.267.133s.12.224.266.133c.147-.09.267-.03.267.134s.11.23.244.147c.134-.083.284-.052.333.07.049.121 4.975 2.631 10.946 5.578l10.857 5.359.646-1.156c2.474-4.427 9.42-21.641 8.93-22.131-.095-.095-24.58-12.28-74.089-36.87-8.727-4.335-16.017-7.882-16.2-7.884-.184-.001-.334-.109-.334-.24s-.12-.164-.266-.073c-.147.09-.267.03-.267-.134s-.12-.224-.267-.133c-.146.091-.266.031-.266-.133s-.12-.224-.267-.134c-.147.091-.267.031-.267-.133s-.109-.23-.244-.147c-.134.082-.304 0-.379-.185-.074-.184-.144-.214-.156-.068m99.785 1.467c0 .66.052.93.116.6.063-.33.063-.87 0-1.2-.064-.33-.116-.06-.116.6"/><path fill="#7574b4" d="m49.945 164-.028 38.533.827.867.827.867h-1.704v4.4h6.121l2.147 2.133 2.148 2.133-1.808.206c-.995.113-2.528.141-3.408.062l-1.6-.144.729.656c.713.64.804.651 4 .507l3.271-.149.72.765.72.764-3.09-.083c-3.924-.106-3.961-.046-1.456 2.444l2.087 2.075 3.453-.018 3.454-.017 1.312 1.333 1.313 1.333h-5.298c-5.257 0-5.294.004-4.822.526.392.432.81.523 2.342.509l1.865-.018 1.414 1.397 1.414 1.397 1.753-.18c1.641-.168 1.752-.145 1.752.361 0 .382-.176.542-.6.545-1.412.008-1.865.283-1.369.83.248.275.793.499 1.21.499.621 0 .759.116.759.632 0 .736 1.177 1.011 3.303.771 1.935-.218 1.784-1.146-.179-1.101-2.021.047-3.124-.243-3.124-.821 0-.419.257-.475 2.129-.463 1.171.007 2.221-.079 2.333-.191.258-.257.434-54.688.195-59.812l-.178-3.785-4.014.003-4.014.003-1.554-1.538c-1.978-1.957-1.893-2.01 3.103-1.93 2.2.034 4.57.041 5.267.014l1.266-.048v-1.434c0-1.863-.278-2.079-2.384-1.859l-1.663.174-5.251-5.246-5.25-5.246-5.126-.053-5.126-.053v-3.35l1.8-.055c.99-.03 2.52-.022 3.4.018l1.6.074-3.395-3.419-3.395-3.418-.084-5.467c-.047-3.006-.098 11.874-.114 33.067M73 172.797l1.933.003v1.6h-2.216c-2.081 0-2.261-.046-2.934-.748-.963-1.005-.903-1.219.284-1.023.55.091 1.87.166 2.933.168M54.133 206.8l.627.667-1.714.003c-.942.002-1.983.076-2.313.165-.507.136-.6.056-.6-.52 0-1.119 3.022-1.357 4-.315m20.8 24.933c0 .432-.177.534-.933.534-1.19 0-1.173.191.133 1.466l1.067 1.042v-1.788c0-.983-.06-1.787-.133-1.787-.074 0-.134.24-.134.533M200 312.932v13.998l22.867 11.368c45.493 22.616 51.804 25.734 52.274 25.824.783.151 4.57 2.098 4.452 2.29-.06.097.217.321.615.498.399.177-11.754-12.166-27.008-27.428-15.253-15.262-27.615-27.749-27.472-27.749.143 0-.817-.492-2.134-1.095-5.475-2.504-7.048-3.287-7.153-3.561-.061-.159-2.135-1.227-4.609-2.374-5.407-2.507-7.11-3.347-9.565-4.713-1.027-.572-1.957-1.044-2.067-1.048-.11-.005-.2 6.291-.2 13.99m41.067 55.215c-.66.189-1.23.368-1.267.398-.067.055-.421.155-.8.226-.938.175-.934.557.017 1.609.541.599.983 1.368.983 1.71 0 .341.082.703.183.804.406.406 1.945 5.106 1.948 5.95.001.318.092.618.202.667.189.084 1.075 2.286 1.27 3.156.049.22.108.4.13.4.022 0 .095.3.162.666.425 2.333.72 2.827 3.169 5.314l2.476 2.513 2.097-.736c2.291-.805 2.439-.863 4.729-1.869.861-.379 1.739-.688 1.952-.688.213 0 .567-.18.787-.4.22-.22.601-.403.847-.406.247-.004.727-.221 1.067-.483l.619-.476-9.586-9.384c-5.272-5.162-9.631-9.369-9.686-9.35-.054.019-.639.19-1.299.379m-6.888 2.176c-.469.191-1.088.384-1.376.428-.287.044-.606.163-.707.264-.102.102-.412.185-.69.185-.277 0-.432.117-.343.261.089.144.33 1.074.537 2.067.695 3.345 1.844 7.996 2.822 11.427.422 1.479.84 3.159.929 3.734.379 2.439 1.869 6.746 2.251 6.51.205-.127.46-.176.567-.11.51.315.42-.564-.291-2.831l-.777-2.478 2.119 2.107c2.044 2.032 3.194 2.562 3.954 1.825.059-.057-1.493-5.443-3.449-11.968-3.928-13.101-3.515-12.25-5.546-11.421m-5.379 1.337c-.22.064-.58.186-.8.271-.572.223-.742.264-1.267.306-1.063.086-1.111.335-.567 2.966a383.43 383.43 0 0 1 1.19 6.117c.367 1.972.811 3.761.989 3.974.177.213.28.4.229.414-.5.138.442 2.805 1.33 3.768.984 1.067 1.808 3.372 2.144 5.991.096.749 1.296.943 2.665.431.914-.342.918-.299-.466-4.965-.196-.66-.429-1.74-.518-2.4-.089-.66-.508-2.34-.931-3.733-.424-1.393-.847-3.193-.94-4-.093-.807-.335-1.91-.539-2.453-.418-1.112-.478-1.354-1.102-4.404-.445-2.175-.649-2.504-1.417-2.283m-6.533 1.401c-.44.115-.605.223-.367.241.26.019.436.272.441.631.004.33.549 3.42 1.212 6.867.662 3.447 1.272 6.687 1.354 7.2.083.513.214 1.233.293 1.6.079.367.211 1.072.293 1.567.083.495.187 1.095.231 1.333.132.71.479 3.356.46 3.5-.01.073.215.382.501.686.286.305.432.641.326.748-.107.107.02.112.283.011.384-.147.448-.386.331-1.227-.129-.923-3.444-17.974-3.743-19.253-.093-.4.041-.35.667.25.909.871.9.935.296-2.015-.509-2.484-.688-2.633-2.578-2.139m-2.267.375c0 .056.3.159.667.229.366.07.666.024.666-.102s-.3-.23-.666-.23c-.367 0-.667.046-.667.103m-2.619.465c-.589.218-.592.159.181 4.632.304 1.76.621 3.92.705 4.8.388 4.106.731 5.532 1.531 6.379l.776.821-.149-.694a32.431 32.431 0 0 1-.3-1.733c-.083-.572-.209-1.209-.28-1.417-.071-.207-.19-1.227-.265-2.266-.075-1.04-.2-2.19-.277-2.556a36.007 36.007 0 0 1-.474-2.632l-.132-.899.675.632.675.632-.175-1.067a53.419 53.419 0 0 0-.342-1.866c-.197-.947-.171-.818-.418-2.05-.203-1.016-.541-1.156-1.731-.716"/><path fill="#747ebd" d="m58.2 70.52-8.333 4.116v50.833l12.498 12.496c8.369 8.367 12.566 12.388 12.702 12.167.112-.181.162-2.505.111-5.164-.052-2.659-.068-16.085-.036-29.836l.058-25 5.201-2.597 5.201-2.596-9.266-9.27c-5.097-5.098-9.387-9.268-9.535-9.268-.147.001-4.018 1.855-8.601 4.119M200 238.087v14.088l40.867 20.362c49.176 24.503 61.869 30.777 62.133 30.712.11-.027.2.078.2.233 0 .156.12.209.267.118.146-.091.266-.031.266.133s.11.231.244.148c.134-.083.305 0 .379.184.074.184.145.215.156.068.012-.147-12.219-12.507-27.179-27.466-14.96-14.96-27.2-27.357-27.2-27.549 0-.192-.109-.282-.244-.199-.134.083-.289.015-.344-.151-.056-.166-.396-.332-.756-.368-1.059-.106-1.095-.121-.924-.397.097-.157-.023-.192-.295-.088-.308.118-.395.075-.267-.133.129-.208.042-.252-.266-.134-.309.119-.396.075-.267-.133.129-.208.042-.252-.267-.133-.308.118-.395.075-.266-.134.128-.208.041-.251-.267-.133s-.395.075-.267-.133c.129-.208.042-.252-.266-.134-.309.119-.396.075-.267-.133.129-.208.042-.252-.267-.133-.335.128-.399.081-.239-.178.152-.246.116-.29-.119-.144-.186.114-.415.088-.508-.058-.094-.147-10.04-5.203-22.104-11.235L200 223.999v14.088m69.427 106.922 23.16 23.179.707-.646c.388-.355.896-.817 1.128-1.027.233-.21.57-.382.749-.382.18 0 .253-.12.162-.266-.09-.147-.042-.267.108-.267.149 0 .523-.27.831-.6.307-.33.645-.6.751-.6.351 0 4.659-3.893 8.431-7.619l3.72-3.676-20.502-10.197c-11.276-5.608-20.66-10.197-20.854-10.197-.193 0-.351-.107-.351-.238s-.12-.164-.267-.073c-.147.091-.267.018-.267-.162s-.073-.253-.163-.163c-.16.159-9.681-4.543-16.903-8.349l-3.6-1.896 23.16 23.179"/><path fill="#5c9cd4" d="M186.933 6.391c-.513.282-6.802 3.41-13.974 6.952l-13.041 6.438 9.403 9.406 9.402 9.406 10.642-5.295 10.642-5.296 9.93 4.954 9.93 4.953-15.999-16.021c-8.8-8.812-16-16.019-16-16.015-.001.003-.421.236-.935.518m36.8 33.476c1.247.645 2.387 1.173 2.534 1.173.146 0-.754-.528-2-1.173-1.247-.646-2.387-1.174-2.534-1.174-.146 0 .754.528 2 1.174m7.467 3.455c0 .074.48.379 1.067.678.586.299 1.066.484 1.066.411 0-.073-.48-.378-1.066-.678-.587-.299-1.067-.484-1.067-.411m26.133 73.896 27.867 27.9 32.24 16.108c17.733 8.859 32.343 16.107 32.467 16.107.125 0 .202-3.69.172-8.2-.038-5.649-.1-7.141-.2-4.798l-.146 3.402-18.132-18.135c-9.973-9.974-18.013-18.137-17.867-18.139.459-.005-4.243-2.375-4.734-2.386-.257-.006-.467-.137-.467-.293 0-.155-.12-.208-.266-.117-.147.09-.267.03-.267-.134s-.12-.224-.267-.133c-.146.091-.266.031-.266-.133s-.11-.231-.244-.148c-.134.083-.284.044-.334-.087-.095-.255-31.185-15.851-59.956-30.078l-17.466-8.637 27.866 27.901"/><path fill="#649cd4" d="M159.441 20.044c-.462.437-5.097 2.742-5.374 2.673-.11-.028-.2.077-.2.232 0 .155-.12.208-.267.118-.147-.091-.267-.031-.267.133s-.12.224-.266.133c-.147-.09-.267-.03-.267.134s-.12.224-.267.133c-.146-.091-.266-.031-.266.133s-.12.224-.267.134c-.147-.091-.267-.031-.267.133s-.12.224-.266.133c-.147-.09-.267-.03-.267.134s-.11.23-.244.147c-.134-.083-.284-.06-.333.051-.049.111-1.04.661-2.202 1.222l-2.112 1.021 9.241 9.241 9.241 9.241 2.292-1.137c1.261-.625 2.214-1.009 2.118-.854-.151.244 8.23-3.858 9.123-4.466.223-.151-2.646-3.19-9.091-9.633-7.982-7.98-9.473-9.359-9.792-9.056M200 77.531v2.87l22.067 22.044 22.066 22.044 3.2 1.662c9.151 4.751 17.282 8.763 17.494 8.632.132-.081.24-.014.24.15s.12.224.266.134c.147-.091.267-.031.267.133s.12.224.267.133c.146-.09.266-.03.266.134s.12.224.267.133c.147-.091.267-.031.267.133s.111.229.248.145c.136-.084.326-.028.42.125.232.375 4.397 2.457 4.402 2.2.003-.112.093-.067.2.098.108.166 3.136 1.765 6.73 3.555l6.533 3.253-27.733-27.77-27.734-27.77-5.866-2.948c-3.227-1.622-5.998-3.053-6.158-3.182-.16-.129-.37-.155-.467-.059-.096.097-.175.028-.175-.151 0-.18-.12-.253-.267-.162-.147.09-.267.03-.267-.134s-.12-.224-.266-.133c-.147.091-.267.058-.267-.073s-.15-.24-.333-.243c-.184-.003-1.894-.832-3.8-1.841-1.907-1.009-3.557-1.807-3.667-1.773-.11.035-.2-.064-.2-.219s-.12-.208-.267-.118c-.146.091-.266.031-.266-.133s-.12-.224-.267-.133c-.147.09-.267.03-.267-.134s-.12-.224-.266-.133c-.147.091-.267.031-.267-.133s-.12-.224-.267-.134c-.146.091-.266.031-.266-.133s-.12-.224-.267-.133c-.147.09-.267.03-.267-.134s-.12-.224-.266-.133c-.147.091-.267.038-.267-.118 0-.155-.09-.258-.2-.23-.11.029-1.19-.452-2.4-1.069l-2.2-1.122v2.87m138.154 140.738c-.011.148 2.619 2.907 5.846 6.131l5.867 5.862v-2.576c0-1.417.07-2.76.157-2.984.147-.384-10.307-5.971-10.891-5.82-.11.028-.2-.076-.2-.231 0-.155-.109-.215-.244-.132-.134.083-.304 0-.379-.184-.074-.184-.144-.214-.156-.066"/><path fill="#7474bc" d="M50.133 131.064v5.329l3.4 3.422 3.4 3.422-1.6-.074c-.88-.04-2.41-.048-3.4-.018l-1.8.055v3.35l5.126.053 5.126.053 5.25 5.246 5.251 5.246 1.663-.174c2.106-.22 2.384-.004 2.384 1.859v1.434l-1.266.048c-.697.027-3.067.02-5.267-.014-4.996-.08-5.081-.027-3.103 1.93l1.554 1.538 4.03-.003 4.03-.003.091 1.918c.051 1.056.116-2.031.145-6.859.029-4.828-.032-8.693-.135-8.589-.104.103-5.744-5.366-12.534-12.155l-12.345-12.343v5.329M75.019 141.6c0 .953.048 1.343.107.867a8.516 8.516 0 0 0 0-1.734c-.059-.476-.107-.086-.107.867m-5.952 31.084c0 1.026 1.467 1.716 3.65 1.716h2.216v-1.6L73 172.797c-1.063-.002-2.383-.077-2.933-.168-.55-.091-1-.066-1 .055M204 300.943c0 .192 3.228 1.76 3.444 1.672.11-.045-.62-.466-1.622-.935-1.002-.47-1.822-.801-1.822-.737m14.667 7.457c1.246.645 2.446 1.173 2.666 1.173.22 0-.62-.528-1.866-1.173-1.247-.645-2.447-1.173-2.667-1.173-.22 0 .62.528 1.867 1.173m34.533 31.086 27.733 27.753 3.916 1.914 3.916 1.914.751-.534c.413-.293.847-.683.964-.866.117-.184.366-.334.552-.334.186 0 .586-.284.888-.632l.55-.632-23.102-23.066-23.101-23.066-5.2-2.653c-2.86-1.459-6.46-3.244-8-3.967-1.54-.722-2.86-1.389-2.934-1.481-.226-.285-3.966-2.103-4.326-2.103-.187 0 12.14 12.489 27.393 27.753m4.133-12.031c0 .084 2.1 1.2 4.667 2.481 2.567 1.281 4.667 2.273 4.667 2.204 0-.068-2.1-1.184-4.667-2.481-2.567-1.296-4.667-2.288-4.667-2.204m17.867 36.76c0 .264 4.207 2.334 4.384 2.157.071-.072-.886-.633-2.127-1.249-1.242-.615-2.257-1.024-2.257-.908m-29.779 6.168c1.564 1.678 5.857 5.99 9.539 9.584 6.077 5.929 6.651 6.565 6.217 6.883-.548.4-.183.474.423.085.318-.204-1.585-2.233-9.311-9.929-5.341-5.32-8.431-8.3-6.868-6.623"/><path fill="#6494d4" d="M137.307 31.061c-5.074 2.548-9.668 4.933-10.208 5.3-.541.367-1.129.723-1.308.791-.178.068 3.773 4.246 8.78 9.286 5.864 5.901 9.06 9.304 8.98 9.562-.099.317-.073.326.125.044.138-.196.301-.316.362-.267.171.136 2.386-.908 2.239-1.055-.07-.071.979-.631 2.331-1.245 3.989-1.813 20.452-10.05 20.616-10.316.083-.135-.88.267-2.14.892l-2.292 1.136-9.181-9.178c-5.049-5.048-9.12-9.275-9.047-9.394.193-.313.745-.578-9.257 4.444M200 91.537v11.005l8.2 4.197c4.51 2.309 14.5 7.326 22.2 11.149l14 6.951-22.133-22.153c-12.173-12.184-22.163-22.153-22.2-22.153-.037 0-.067 4.952-.067 11.004m44.556 33.365c.271.25 4.511 2.29 4.511 2.171 0-.149-4.149-2.273-4.439-2.273-.101 0-.134.046-.072.102m57.788 89.297c15.003 15.01 27.213 27.375 27.134 27.479-.08.104-.072.136.017.071.089-.064.299-.001.467.142.167.142 1.385.803 2.705 1.469s3.48 1.792 4.8 2.503c1.319.711 2.448 1.244 2.508 1.184.102-.102 6.583 3.211 8.986 4.595l1.094.63-.008-13.803c-.005-7.591-.052-12.548-.104-11.015l-.096 2.788-5.709-5.704c-3.139-3.137-5.636-5.82-5.549-5.962.088-.142.022-.173-.148-.068-.169.105-.308.065-.308-.088 0-.264-33.078-16.874-36.92-18.54-.999-.433-1.951-.913-2.117-1.067-.166-.154-3.421-1.826-7.232-3.717a3182.18 3182.18 0 0 1-11.078-5.519c-2.281-1.146-4.501-2.215-4.933-2.376-.494-.183 9.356 9.855 26.491 26.998m37.412 4.837c.271.25 4.511 2.289 4.511 2.17 0-.149-4.149-2.273-4.439-2.273-.101 0-.134.046-.072.103"/></g></svg>